<svg width="184" height="51" viewBox="0 0 184 51" fill="none" xmlns="http://www.w3.org/2000/svg">
<path d="M70.24 44.24C69.28 44.24 68.38 44.0733 67.54 43.74C66.7 43.4067 65.96 42.9267 65.32 42.3C64.6933 41.6733 64.2 40.92 63.84 40.04C63.48 39.16 63.3 38.18 63.3 37.1C63.3 35.9533 63.5 34.88 63.9 33.88C64.3133 32.88 64.88 32.0067 65.6 31.26C66.32 30.5 67.16 29.9133 68.12 29.5C69.0933 29.0733 70.1467 28.86 71.28 28.86C72.3467 28.86 73.2933 29.04 74.12 29.4C74.9467 29.76 75.6333 30.24 76.18 30.84C76.7267 31.4267 77.1 32.0733 77.3 32.78L74.8 33.94C74.56 33.1667 74.1267 32.54 73.5 32.06C72.8733 31.58 72.0733 31.34 71.1 31.34C70.3533 31.34 69.6667 31.4867 69.04 31.78C68.4267 32.06 67.8933 32.46 67.44 32.98C66.9867 33.4867 66.6333 34.08 66.38 34.76C66.14 35.44 66.02 36.18 66.02 36.98C66.02 37.94 66.2 38.78 66.56 39.5C66.9333 40.22 67.4533 40.78 68.12 41.18C68.7867 41.5667 69.56 41.76 70.44 41.76C71.2133 41.76 71.9133 41.6133 72.54 41.32C73.18 41.0133 73.7067 40.58 74.12 40.02C74.5467 39.46 74.8 38.8067 74.88 38.06L75.02 36.92L76.18 38H70.66L70.84 35.7H77.86L77.68 37.5C77.5867 38.5933 77.3133 39.56 76.86 40.4C76.42 41.24 75.86 41.9467 75.18 42.52C74.5 43.08 73.7333 43.5067 72.88 43.8C72.04 44.0933 71.16 44.24 70.24 44.24ZM78.9691 44L81.0491 29.1H86.3891C87.3357 29.1 88.1624 29.2733 88.8691 29.62C89.5757 29.9667 90.1224 30.4733 90.5091 31.14C90.9091 31.7933 91.1091 32.6 91.1091 33.56C91.1091 34.28 90.9824 34.94 90.7291 35.54C90.4757 36.14 90.1091 36.66 89.6291 37.1C89.1491 37.54 88.5691 37.88 87.8891 38.12L90.4091 44H87.4891L84.7291 37.4L86.3691 38.5H82.4691L81.6891 44H78.9691ZM82.8091 36.1H85.7091C86.2291 36.1 86.6891 35.9933 87.0891 35.78C87.4891 35.5533 87.8024 35.2467 88.0291 34.86C88.2557 34.4733 88.3691 34.0333 88.3691 33.54C88.3691 32.9133 88.1691 32.42 87.7691 32.06C87.3824 31.6867 86.8491 31.5 86.1691 31.5H83.4291L82.8091 36.1ZM92.348 44L94.428 29.1H104.348L104.008 31.5H96.808L96.288 35.32H103.068L102.748 37.72H95.948L95.408 41.6H102.588L102.268 44H92.348ZM108.043 44L108.963 37.4L105.103 29.1H108.043L110.983 35.58L109.863 35.56L114.563 29.1H117.863L111.723 37.38L110.803 44H108.043ZM123.78 44L121.86 29.1H124.72L126.08 41.8H125.22L130.44 29.1H133.14L134.76 41.8H133.8L138.86 29.1H141.82L135.76 44H132.62L131.06 31.64H131.94L126.9 44H123.78ZM148.98 44.24C147.927 44.24 146.947 44.06 146.04 43.7C145.147 43.34 144.367 42.84 143.7 42.2C143.047 41.5467 142.534 40.7867 142.16 39.92C141.8 39.04 141.62 38.08 141.62 37.04C141.62 35.88 141.827 34.8067 142.24 33.82C142.667 32.8333 143.254 31.9667 144 31.22C144.747 30.4733 145.62 29.8933 146.62 29.48C147.62 29.0667 148.7 28.86 149.86 28.86C150.927 28.86 151.907 29.04 152.8 29.4C153.707 29.7467 154.487 30.2467 155.14 30.9C155.807 31.54 156.32 32.3 156.68 33.18C157.054 34.0467 157.24 34.9933 157.24 36.02C157.24 37.18 157.027 38.26 156.6 39.26C156.174 40.2467 155.58 41.1133 154.82 41.86C154.074 42.6067 153.2 43.1933 152.2 43.62C151.2 44.0333 150.127 44.24 148.98 44.24ZM148.98 41.76C149.754 41.76 150.474 41.62 151.14 41.34C151.807 41.0467 152.394 40.64 152.9 40.12C153.407 39.6 153.8 38.9933 154.08 38.3C154.36 37.6067 154.5 36.86 154.5 36.06C154.5 35.1267 154.3 34.3067 153.9 33.6C153.514 32.8933 152.967 32.34 152.26 31.94C151.567 31.54 150.767 31.34 149.86 31.34C149.087 31.34 148.367 31.4867 147.7 31.78C147.034 32.06 146.447 32.46 145.94 32.98C145.434 33.4867 145.04 34.0867 144.76 34.78C144.48 35.46 144.34 36.2067 144.34 37.02C144.34 37.94 144.54 38.76 144.94 39.48C145.34 40.1867 145.887 40.7467 146.58 41.16C147.274 41.56 148.074 41.76 148.98 41.76ZM158.637 44L160.717 29.1H163.437L161.697 41.6H168.077L167.737 44H158.637ZM169.496 44L171.576 29.1H181.516L181.196 31.5H173.956L173.396 35.62H179.716L179.376 38.02H173.056L172.216 44H169.496Z" fill="white"/>
<path d="M20.8338 33.6674L23.7116 30.6115H34.1388C22.9161 40.2705 9.52532 43.6539 9.52532 43.6539C7.70426 25.2479 32.232 7.50073 32.232 7.50073L26.4685 20.5548L40.6821 20.4301L44.8663 25.8248H57.7501L46.2623 44.3984L41.8832 35.2344L32.6336 44.3984L31.6353 37.6433" stroke="white" stroke-width="2" stroke-linecap="round" stroke-linejoin="round"/>
</svg>
