<svg width="24" height="30" viewBox="0 0 24 30" fill="none" xmlns="http://www.w3.org/2000/svg">
<path d="M1.54344 28.5C1.78233 24.3963 2.99016 20.7631 4.76279 18.1041C6.75558 15.1149 9.34387 13.5 12 13.5C14.6561 13.5 17.2444 15.1149 19.2372 18.1041C21.0098 20.7631 22.2177 24.3963 22.4566 28.5H22.4257H22.3783H22.3311H22.2843H22.2378H22.1916H22.1456H22.1H22.0547H22.0097H21.965H21.9206H21.8765H21.8327H21.7891H21.7459H21.703H21.6603H21.618H21.5759H21.5341H21.4926H21.4514H21.4105H21.3699H21.3295H21.2894H21.2496H21.2101H21.1708H21.1319H21.0932H21.0547H21.0166H20.9787H20.9411H20.9037H20.8666H20.8298H20.7933H20.757H20.7209H20.6852H20.6496H20.6144H20.5794H20.5446H20.5101H20.4759H20.4419H20.4081H20.3746H20.3414H20.3084H20.2756H20.2431H20.2108H20.1788H20.147H20.1154H20.0841H20.053H20.0222H19.9916H19.9612H19.931H19.9011H19.8714H19.8419H19.8127H19.7837H19.7549H19.7263H19.6979H19.6698H19.6419H19.6142H19.5867H19.5594H19.5323H19.5055H19.4788H19.4524H19.4262H19.4001H19.3743H19.3487H19.3233H19.2981H19.2731H19.2483H19.2237H19.1993H19.175H19.151H19.1272H19.1035H19.0801H19.0568H19.0337H19.0108H18.9881H18.9656H18.9433H18.9211H18.8991H18.8773H18.8557H18.8343H18.813H18.7919H18.771H18.7502H18.7296H18.7092H18.6889H18.6688H18.6489H18.6292H18.6096H18.5901H18.5708H18.5517H18.5328H18.514H18.4953H18.4768H18.4584H18.4402H18.4222H18.4043H18.3865H18.3689H18.3515H18.3341H18.317H18.2999H18.283H18.2663H18.2496H18.2331H18.2168H18.2006H18.1845H18.1685H18.1527H18.137H18.1214H18.1059H18.0906H18.0754H18.0603H18.0453H18.0305H18.0158H18.0011H17.9866H17.9723H17.958H17.9438H17.9298H17.9158H17.902H17.8883H17.8746H17.8611H17.8477H17.8344H17.8212H17.808H17.795H17.7821H17.7693H17.7565H17.7439H17.7313H17.7188H17.7065H17.6942H17.682H17.6699H17.6578H17.6459H17.634H17.6222H17.6105H17.5988H17.5873H17.5758H17.5644H17.553H17.5418H17.5306H17.5194H17.5083H17.4973H17.4864H17.4755H17.4647H17.454H17.4433H17.4326H17.422H17.4115H17.401H17.3906H17.3803H17.3699H17.3597H17.3495H17.3393H17.3292H17.3191H17.309H17.299H17.2891H17.2792H17.2693H17.2594H17.2496H17.2398H17.2301H17.2204H17.2107H17.201H17.1914H17.1818H17.1722H17.1627H17.1532H17.1437H17.1342H17.1247H17.1152H17.1058H17.0964H17.087H17.0776H17.0682H17.0588H17.0495H17.0401H17.0307H17.0214H17.012H17.0027H16.9934H16.984H16.9747H16.9653H16.956H16.9466H16.9373H16.9279H16.9185H16.9091H16.8997H16.8903H16.8809H16.8714H16.8619H16.8525H16.843H16.8334H16.8239H16.8143H16.8047H16.7951H16.7855H16.7758H16.7661H16.7564H16.7466H16.7368H16.727H16.7171H16.7072H16.6973H16.6873H16.6773H16.6672H16.6571H16.6469H16.6367H16.6265H16.6162H16.6058H16.5954H16.585H16.5745H16.5639H16.5533H16.5426H16.5319H16.5211H16.5103H16.4993H16.4884H16.4773H16.4662H16.455H16.4438H16.4325H16.4211H16.4096H16.3981H16.3865H16.3748H16.363H16.3512H16.3393H16.3273H16.3152H16.303H16.2907H16.2784H16.266H16.2534H16.2408H16.2281H16.2153H16.2024H16.1895H16.1764H16.1632H16.1499H16.1365H16.123H16.1095H16.0958H16.082H16.0681H16.0541H16.0399H16.0257H16.0114H15.9969H15.9823H15.9677H15.9529H15.9379H15.9229H15.9077H15.8925H15.877H15.8615H15.8459H15.8301H15.8142H15.7981H15.7819H15.7656H15.7492H15.7326H15.7159H15.6991H15.6821H15.6649H15.6477H15.6303H15.6127H15.595H15.5772H15.5592H15.541H15.5227H15.5043H15.4857H15.467H15.4481H15.429H15.4098H15.3904H15.3709H15.3512H15.3313H15.3113H15.2911H15.2707H15.2502H15.2295H15.2087H15.1876H15.1664H15.145H15.1235H15.1017H15.0798H15.0577H15.0355H15.013H14.9904H14.9676H14.9445H14.9214H14.898H14.8744H14.8506H14.8267H14.8025H14.7782H14.7537H14.7289H14.704H14.6789H14.6535H14.628H14.6023H14.5763H14.5502H14.5238H14.4973H14.4705H14.4435H14.4163H14.3889H14.3613H14.3335H14.3054H14.2771H14.2486H14.2199H14.191H14.1618H14.1324H14.1028H14.073H14.0429H14.0126H13.9821H13.9513H13.9203H13.8891H13.8576H13.8259H13.794H13.7618H13.7294H13.6967H13.6638H13.6306H13.5972H13.5636H13.5297H13.4956H13.4612H13.4265H13.3916H13.3564H13.321H13.2853H13.2494H13.2132H13.1767H13.14H13.103H13.0658H13.0283H12.9905H12.9524H12.9141H12.8755H12.8367H12.7975H12.7581H12.7184H12.6784H12.6382H12.5976H12.5568H12.5157H12.4743H12.4327H12.3907H12.3485H12.3059H12.2631H12.22H12.1766H12.1329H12.0889H12.0446H12H11.9649H11.93H11.8953H11.8608H11.8264H11.7922H11.7581H11.7243H11.6906H11.6571H11.6237H11.5905H11.5575H11.5246H11.4919H11.4594H11.427H11.3948H11.3627H11.3308H11.2991H11.2675H11.2361H11.2048H11.1737H11.1428H11.112H11.0814H11.0509H11.0206H10.9904H10.9604H10.9305H10.9008H10.8712H10.8418H10.8125H10.7833H10.7544H10.7255H10.6968H10.6683H10.6399H10.6116H10.5835H10.5555H10.5276H10.4999H10.4723H10.4449H10.4176H10.3905H10.3634H10.3366H10.3098H10.2832H10.2567H10.2303H10.2041H10.178H10.1521H10.1262H10.1005H10.0749H10.0495H10.0241H9.99894H9.97386H9.9489H9.92407H9.89935H9.87476H9.85029H9.82594H9.80171H9.77759H9.7536H9.72972H9.70595H9.6823H9.65877H9.63534H9.61203H9.58884H9.56575H9.54278H9.51991H9.49715H9.47451H9.45197H9.42953H9.4072H9.38498H9.36286H9.34085H9.31894H9.29713H9.27542H9.25381H9.23231H9.2109H9.18959H9.16838H9.14726H9.12624H9.10532H9.08449H9.06376H9.04311H9.02256H9.00211H8.98174H8.96146H8.94128H8.92118H8.90117H8.88124H8.86141H8.84165H8.82199H8.8024H8.7829H8.76349H8.74415H8.7249H8.70572H8.68663H8.66761H8.64868H8.62982H8.61103H8.59232H8.57369H8.55513H8.53665H8.51824H8.4999H8.48163H8.46343H8.4453H8.42724H8.40925H8.39132H8.37346H8.35567H8.33794H8.32028H8.30268H8.28515H8.26767H8.25026H8.23291H8.21562H8.19839H8.18121H8.1641H8.14704H8.13003H8.11309H8.09619H8.07935H8.06257H8.04583H8.02915H8.01252H7.99593H7.9794H7.96292H7.94648H7.93009H7.91375H7.89745H7.8812H7.86499H7.84883H7.8327H7.81662H7.80058H7.78458H7.76862H7.7527H7.73682H7.72097H7.70516H7.68939H7.67365H7.65794H7.64227H7.62663H7.61102H7.59545H7.5799H7.56438H7.5489H7.53344H7.51801H7.5026H7.48722H7.47187H7.45654H7.44123H7.42595H7.41069H7.39545H7.38023H7.36503H7.34985H7.33469H7.31954H7.30442H7.28931H7.27421H7.25913H7.24406H7.22901H7.21396H7.19893H7.18391H7.1689H7.1539H7.13891H7.12392H7.10894H7.09397H7.07901H7.06404H7.04909H7.03413H7.01918H7.00423H6.98928H6.97433H6.95938H6.94443H6.92948H6.91452H6.89956H6.8846H6.86963H6.85465H6.83967H6.82468H6.80969H6.79468H6.77966H6.76464H6.7496H6.73455H6.71949H6.70441H6.68932H6.67422H6.6591H6.64396H6.62881H6.61364H6.59845H6.58324H6.56801H6.55275H6.53748H6.52219H6.50687H6.49152H6.47616H6.46076H6.44534H6.4299H6.41442H6.39892H6.38339H6.36783H6.35223H6.33661H6.32095H6.30526H6.28954H6.27378H6.25799H6.24216H6.22629H6.21038H6.19444H6.17846H6.16244H6.14637H6.13027H6.11412H6.09794H6.0817H6.06543H6.0491H6.03274H6.01632H5.99986H5.98335H5.96679H5.95018H5.93352H5.91681H5.90005H5.88323H5.86636H5.84944H5.83246H5.81542H5.79833H5.78119H5.76398H5.74672H5.72939H5.71201H5.69456H5.67705H5.65948H5.64185H5.62415H5.60639H5.58856H5.57067H5.55271H5.53468H5.51658H5.49841H5.48018H5.46187H5.44349H5.42503H5.40651H5.38791H5.36924H5.35049H5.33166H5.31276H5.29378H5.27472H5.25558H5.23636H5.21707H5.19769H5.17822H5.15868H5.13905H5.11934H5.09954H5.07965H5.05968H5.03962H5.01947H4.99924H4.97891H4.9585H4.93799H4.91739H4.8967H4.87591H4.85503H4.83405H4.81298H4.79181H4.77055H4.74919H4.72772H4.70616H4.6845H4.66274H4.64087H4.6189H4.59683H4.57466H4.55238H4.52999H4.5075H4.4849H4.46219H4.43937H4.41645H4.39341H4.37027H4.34701H4.32364H4.30015H4.27655H4.25284H4.22901H4.20507H4.18101H4.15683H4.13253H4.10811H4.08358H4.05892H4.03414H4.00924H3.98421H3.95906H3.93379H3.90839H3.88287H3.85722H3.83144H3.80553H3.77949H3.75333H3.72703H3.7006H3.67404H3.64735H3.62052H3.59356H3.56647H3.53924H3.51187H3.48436H3.45672H3.42893H3.40101H3.37295H3.34474H3.3164H3.28791H3.25927H3.2305H3.20158H3.17251H3.1433H3.11393H3.08442H3.05477H3.02496H2.995H2.96489H2.93463H2.90422H2.87365H2.84293H2.81206H2.78103H2.74984H2.7185H2.687H2.65534H2.62352H2.59154H2.5594H2.52709H2.49463H2.462H2.42921H2.39626H2.36313H2.32985H2.29639H2.26277H2.22898H2.19502H2.16089H2.12659H2.09212H2.05748H2.02266H1.98767H1.9525H1.91716H1.88165H1.84596H1.81009H1.77404H1.73781H1.7014H1.66482H1.62805H1.5911H1.55396H1.54344Z" fill="white" stroke="#2E3A2B" stroke-width="3"/>
<circle cx="12" cy="8" r="6.5" fill="white" stroke="#2E3A2B" stroke-width="3"/>
</svg>
